<svg xmlns="http://www.w3.org/2000/svg" width="120" height="40" viewBox="0 0 120 40"><defs><style>.a{fill:#fff;fill-rule:evenodd;}</style></defs><path d="M4.875,0h110.25A4.838,4.838,0,0,1,120,4.8V35.2a4.838,4.838,0,0,1-4.875,4.8H4.875A4.838,4.838,0,0,1,0,35.2V4.8A4.838,4.838,0,0,1,4.875,0Z"/><g transform="translate(10.64 7.04)"><path class="a" d="M15.593,74.873a5.141,5.141,0,0,1,2.489-4.318,5.382,5.382,0,0,0-4.216-2.244c-1.773-.184-3.494,1.045-4.4,1.045-.921,0-2.313-1.027-3.812-1A5.625,5.625,0,0,0,.934,71.2c-2.043,3.483-.519,8.6,1.438,11.416.979,1.38,2.123,2.918,3.621,2.864,1.465-.059,2.012-.92,3.78-.92,1.752,0,2.266.92,3.793.884,1.572-.023,2.562-1.384,3.507-2.776a11.29,11.29,0,0,0,1.6-3.216,4.987,4.987,0,0,1-3.083-4.575" transform="translate(0.036 -62.828)"/><path class="a" d="M117.868,3.632A5.014,5.014,0,0,0,119.046,0a5.268,5.268,0,0,0-3.388,1.726,4.775,4.775,0,0,0-1.208,3.5,4.355,4.355,0,0,0,3.419-1.592" transform="translate(-105.123 -0.002)"/></g><g transform="translate(37.361 17.5)"><path class="a" d="M9.984,13.747H7.937l-1.122-3.47h-3.9l-1.068,3.47H-.145L3.718,1.932H6.1l3.88,11.814ZM6.477,8.82,5.463,5.736q-.161-.474-.6-2.226H4.822q-.179.754-.57,2.226l-1,3.084Z" transform="translate(0.145 -1.757)"/><path class="a" d="M152.378,45.257a4.779,4.779,0,0,1-1.2,3.435,3.542,3.542,0,0,1-2.667,1.122,2.681,2.681,0,0,1-2.47-1.209v4.47H144.12V43.9q0-1.365-.071-2.8h1.69l.107,1.351h.036a3.451,3.451,0,0,1,5.473-.336,4.663,4.663,0,0,1,1.022,3.139Zm-1.958.069a3.467,3.467,0,0,0-.57-2.051,1.98,1.98,0,0,0-1.673-.842,2.014,2.014,0,0,0-1.29.465,2.143,2.143,0,0,0-.756,1.219,2.426,2.426,0,0,0-.089.575v1.422a2.258,2.258,0,0,0,.579,1.569,1.935,1.935,0,0,0,1.5.64,1.98,1.98,0,0,0,1.69-.824,3.585,3.585,0,0,0,.606-2.174Z" transform="translate(-132.333 -37.632)"/><path class="a" d="M274.845,45.257a4.779,4.779,0,0,1-1.2,3.435,3.544,3.544,0,0,1-2.668,1.122,2.683,2.683,0,0,1-2.47-1.209v4.47h-1.922V43.9q0-1.365-.071-2.8h1.69l.107,1.351h.036a3.452,3.452,0,0,1,5.474-.336,4.668,4.668,0,0,1,1.022,3.139Zm-1.959.069a3.467,3.467,0,0,0-.571-2.051,1.975,1.975,0,0,0-1.672-.842,2.022,2.022,0,0,0-1.292.465,2.146,2.146,0,0,0-.755,1.219,2.481,2.481,0,0,0-.09.575v1.422a2.265,2.265,0,0,0,.578,1.569,1.939,1.939,0,0,0,1.506.64,1.978,1.978,0,0,0,1.691-.824,3.586,3.586,0,0,0,.606-2.174Z" transform="translate(-244.849 -37.632)"/><path class="a" d="M421.833,8.422a3.13,3.13,0,0,1-1.067,2.454A4.775,4.775,0,0,1,417.5,11.91a5.775,5.775,0,0,1-3.107-.736l.444-1.578a5.42,5.42,0,0,0,2.777.737,2.649,2.649,0,0,0,1.69-.482,1.564,1.564,0,0,0,.607-1.287,1.635,1.635,0,0,0-.5-1.211,4.651,4.651,0,0,0-1.654-.91q-3.151-1.157-3.152-3.384A2.971,2.971,0,0,1,415.716.676a4.444,4.444,0,0,1,2.946-.929,5.9,5.9,0,0,1,2.724.561L420.9,1.85a4.821,4.821,0,0,0-2.305-.543,2.367,2.367,0,0,0-1.59.491,1.4,1.4,0,0,0-.483,1.071,1.434,1.434,0,0,0,.554,1.156,6.23,6.23,0,0,0,1.744.912A5.928,5.928,0,0,1,421.1,6.372a2.966,2.966,0,0,1,.733,2.05" transform="translate(-380.712 0.254)"/><path class="a" d="M524.836,20.114h-2.119V24.25q0,1.578,1.122,1.577a3.425,3.425,0,0,0,.854-.088l.053,1.437a4.415,4.415,0,0,1-1.494.21,2.328,2.328,0,0,1-1.782-.684,3.316,3.316,0,0,1-.641-2.3V20.11h-1.261V18.69h1.261V17.13l1.888-.561V18.69h2.119v1.424" transform="translate(-477.344 -15.223)"/><path class="a" d="M606.009,45.323a4.626,4.626,0,0,1-1.14,3.225,4.1,4.1,0,0,1-3.168,1.3,3.9,3.9,0,0,1-3.035-1.244,4.485,4.485,0,0,1-1.131-3.136,4.6,4.6,0,0,1,1.166-3.242,4.072,4.072,0,0,1,3.142-1.262A3.989,3.989,0,0,1,604.9,42.2a4.432,4.432,0,0,1,1.1,3.118Zm-1.993.043a3.769,3.769,0,0,0-.515-2.01,1.907,1.907,0,0,0-1.727-1.014,1.935,1.935,0,0,0-1.763,1.014A3.823,3.823,0,0,0,599.5,45.4a3.744,3.744,0,0,0,.516,2.01,1.986,1.986,0,0,0,3.475-.016,3.792,3.792,0,0,0,.53-2.029Z" transform="translate(-548.976 -37.663)"/><path class="a" d="M726.407,42.767a3.4,3.4,0,0,0-.606-.051,1.823,1.823,0,0,0-1.567.754,2.8,2.8,0,0,0-.48,1.682v4.47h-1.922V43.785c0-.981-.019-1.877-.056-2.682h1.674l.07,1.63h.053a2.916,2.916,0,0,1,.961-1.349,2.345,2.345,0,0,1,1.389-.457,3.247,3.247,0,0,1,.481.035l0,1.806" transform="translate(-663.123 -37.632)"/><path class="a" d="M797.633,44.806a4.372,4.372,0,0,1-.07.858H791.8a2.453,2.453,0,0,0,.836,1.93,2.893,2.893,0,0,0,1.886.595,6.446,6.446,0,0,0,2.333-.4l.3,1.314a7.331,7.331,0,0,1-2.9.526,3.992,3.992,0,0,1-4.309-4.293,4.826,4.826,0,0,1,1.069-3.207,3.707,3.707,0,0,1,3.025-1.366,3.238,3.238,0,0,1,2.831,1.366,4.54,4.54,0,0,1,.764,2.679Zm-1.833-.491a2.534,2.534,0,0,0-.373-1.455,1.686,1.686,0,0,0-1.531-.79,1.83,1.83,0,0,0-1.53.771,2.8,2.8,0,0,0-.569,1.472l4,0Z" transform="translate(-725.753 -37.479)"/></g><g transform="translate(38.077 7.338)"><path class="a" d="M4.645,9.3H3.638L3.088,7.594H1.172L.646,9.3h-.98l1.9-5.807H2.737L4.645,9.3ZM2.922,6.879l-.5-1.516c-.052-.155-.149-.517-.3-1.094H2.107c-.061.249-.149.612-.28,1.094l-.49,1.516Z" transform="translate(0.334 -3.192)"/><path class="a" d="M73.175,23.745l-1.61,4.187h-.919l-1.558-4.187H70.1l.727,2.214c.123.37.227.724.306,1.059h.026c.07-.3.175-.654.306-1.059l.718-2.214h.99" transform="translate(-63.448 -21.824)"/><path class="a" d="M131.7,26.941l-.07-.482H131.6a1.458,1.458,0,0,1-1.242.577,1.229,1.229,0,0,1-1.3-1.232c0-1.033.91-1.568,2.485-1.568v-.077c0-.551-.3-.827-.884-.827a2.008,2.008,0,0,0-1.111.311l-.192-.612a2.755,2.755,0,0,1,1.461-.362,1.506,1.506,0,0,1,1.672,1.732v1.542a6.125,6.125,0,0,0,.061,1Zm-.132-2.085c-1.05,0-1.575.25-1.575.844a.6.6,0,0,0,.647.654.9.9,0,0,0,.928-.852v-.646Z" transform="translate(-118.544 -20.833)"/><path class="a" d="M190.86,2.34a.557.557,0,1,1,.6-.56.551.551,0,0,1-.6.56Zm-.454.69h.945V7.217h-.945Z" transform="translate(-174.812 -1.109)"/><path class="a" d="M223.89-.269h.945V5.839h-.945Z" transform="translate(-205.673 0.269)"/><path class="a" d="M255.063,26.931l-.071-.482h-.025a1.458,1.458,0,0,1-1.242.577,1.229,1.229,0,0,1-1.3-1.232c0-1.033.91-1.568,2.485-1.568v-.077c0-.551-.3-.827-.884-.827a2.008,2.008,0,0,0-1.111.311l-.193-.613a2.755,2.755,0,0,1,1.461-.362,1.507,1.507,0,0,1,1.672,1.732v1.542a6.376,6.376,0,0,0,.059,1Zm-.132-2.085c-1.05,0-1.575.25-1.575.844a.6.6,0,0,0,.647.654.9.9,0,0,0,.928-.852v-.646Z" transform="translate(-231.885 -20.823)"/><path class="a" d="M316.722,5.934a1.45,1.45,0,0,1-1.338-.741h-.018l-.054.646h-.8c.025-.336.034-.716.034-1.128V-.269h.947V2.265h.017a1.466,1.466,0,0,1,1.356-.7c1.024,0,1.742.862,1.742,2.119a2.025,2.025,0,0,1-1.882,2.248ZM316.53,2.3a1.078,1.078,0,0,0-1.041,1.111v.732a1.033,1.033,0,0,0,1.024,1.051c.708,0,1.13-.568,1.13-1.473,0-.844-.439-1.422-1.113-1.422Z" transform="translate(-288.928 0.269)"/><path class="a" d="M382.133-.269h.944V5.839h-.944Z" transform="translate(-351.059 0.269)"/><path class="a" d="M414.666,24.969h-2.836a1.212,1.212,0,0,0,1.338,1.24,3.236,3.236,0,0,0,1.147-.2l.147.646a3.593,3.593,0,0,1-1.425.258,1.959,1.959,0,0,1-2.118-2.11,2.057,2.057,0,0,1,2.012-2.249,1.77,1.77,0,0,1,1.768,1.99,1.768,1.768,0,0,1-.032.422Zm-.866-.663c0-.646-.334-1.1-.938-1.1a1.113,1.113,0,0,0-1.033,1.1Z" transform="translate(-377.505 -20.731)"/><path class="a" d="M504.382,27.036a2.006,2.006,0,0,1-2.047-2.154,2.053,2.053,0,0,1,2.119-2.214,1.991,1.991,0,0,1,2.047,2.146,2.066,2.066,0,0,1-2.119,2.222Zm.036-3.688c-.682,0-1.12.629-1.12,1.507,0,.862.446,1.491,1.111,1.491s1.111-.672,1.111-1.508c0-.852-.437-1.49-1.1-1.49Z" transform="translate(-461.495 -20.833)"/><path class="a" d="M574,26.931h-.943v-2.4c0-.74-.289-1.111-.858-1.111a.973.973,0,0,0-.946,1.025v2.49h-.943v-2.99c0-.37-.011-.767-.036-1.2h.831l.044.646h.027a1.529,1.529,0,0,1,1.347-.732c.891,0,1.477.672,1.477,1.766v2.508" transform="translate(-523.911 -20.823)"/><path class="a" d="M662.985,12.447h-1.039V14.48q0,.776.55.776a1.9,1.9,0,0,0,.42-.043l.026.707a2.136,2.136,0,0,1-.734.1c-.746,0-1.189-.4-1.189-1.465V12.447H660.4v-.7h.619v-.767l.927-.276v1.042h1.039v.7" transform="translate(-606.717 -9.828)"/><path class="a" d="M712.052,5.839h-.946V3.452c0-.749-.289-1.128-.857-1.128a.918.918,0,0,0-.944.991V5.839h-.946V-.269h.946V2.246h.018a1.436,1.436,0,0,1,1.278-.681c.9,0,1.451.689,1.451,1.783v2.49" transform="translate(-650.781 0.269)"/><path class="a" d="M770.855,24.969h-2.835a1.211,1.211,0,0,0,1.338,1.24,3.214,3.214,0,0,0,1.145-.2l.148.646a3.593,3.593,0,0,1-1.426.258,1.958,1.958,0,0,1-2.117-2.11,2.056,2.056,0,0,1,2.012-2.249,1.77,1.77,0,0,1,1.768,1.99,1.764,1.764,0,0,1-.031.422Zm-.866-.663c0-.646-.332-1.1-.936-1.1a1.112,1.112,0,0,0-1.033,1.1Z" transform="translate(-704.755 -20.731)"/></g></svg>