<svg xmlns="http://www.w3.org/2000/svg" width="260" height="400" viewBox="0 0 260 400"><defs><style>.a,.d,.f{fill:#fff;}.a{opacity:0;}.b{fill:#e5e5e5;}.c{fill:#fafafa;}.c,.d,.e,.f{stroke:#aaa;stroke-width:1.5px;}.c,.d,.e,.f,.j{stroke-linecap:round;}.c,.d{stroke-linejoin:round;}.e,.j,.l{fill:none;}.g{fill:#aaa;}.h{fill:#cecece;opacity:0.4;}.i{fill:#ffc000;}.j{stroke:#999;stroke-width:3px;}.k{stroke:none;}</style></defs><g transform="translate(-1208 -4342)"><rect class="a" width="260" height="400" transform="translate(1208 4342)"/><g transform="translate(1211.073 4346.814)"><g transform="translate(0 97.657)"><path class="b" d="M685.511,2922.3c15.6-.264,121.625.631,121.625,6.6s23.035,17.855-121.625,17.268-128.148-7.882-128.15-17.268S669.915,2922.559,685.511,2922.3Z" transform="translate(-556.792 -2651.305)"/><path class="c" d="M504.246,4776.826l-2.1-50.379s-.552-6.372,6.383-6.372c63.733,0,233.9.15,239.695.22s5.685,4.543,5.685,4.543l-3.968,57.281s.332,200.435.2,207.392-6.091,6.959-6.091,6.959H508.457s-4.212-.236-4.212-5.466V4789.87" transform="translate(-500.391 -4720.076)"/><path class="d" d="M517.966,4737.337s.107,24.433.492,29.234,4.562,4.6,4.562,4.6H737.733c4.516,0,4.595-4.923,4.595-4.923l1.827-23.937s.561-4.974-3.4-4.974H525.861" transform="translate(-503.095 -4723.026)"/><path class="e" d="M516.966,4793.76H744.172" transform="translate(-502.925 -4731.366)"/><g class="f" transform="translate(16.557 72.117)"><rect class="k" width="50.579" height="34.825" rx="4"/><rect class="l" x="0.75" y="0.75" width="49.079" height="33.325" rx="3.25"/></g><g class="f" transform="translate(130.186 72.117)"><rect class="k" width="50.579" height="34.825" rx="4"/><rect class="l" x="0.75" y="0.75" width="49.079" height="33.325" rx="3.25"/></g><g class="f" transform="translate(73.535 72.117)"><rect class="k" width="50.579" height="34.825" rx="4"/><rect class="l" x="0.75" y="0.75" width="49.079" height="33.325" rx="3.25"/></g><g class="f" transform="translate(187.15 72.117)"><rect class="k" width="50.579" height="34.825" rx="4"/><rect class="l" x="0.75" y="0.75" width="49.079" height="33.325" rx="3.25"/></g><g class="f" transform="translate(16.557 112.029)"><rect class="k" width="50.579" height="34.825" rx="4"/><rect class="l" x="0.75" y="0.75" width="49.079" height="33.325" rx="3.25"/></g><g class="f" transform="translate(130.186 112.029)"><rect class="k" width="50.579" height="34.825" rx="4"/><rect class="l" x="0.75" y="0.75" width="49.079" height="33.325" rx="3.25"/></g><g class="f" transform="translate(73.535 112.029)"><rect class="k" width="50.579" height="34.825" rx="4"/><rect class="l" x="0.75" y="0.75" width="49.079" height="33.325" rx="3.25"/></g><g class="f" transform="translate(187.15 112.029)"><rect class="k" width="50.579" height="34.825" rx="4"/><rect class="l" x="0.75" y="0.75" width="49.079" height="33.325" rx="3.25"/></g><g class="f" transform="translate(16.557 151.941)"><rect class="k" width="50.579" height="34.825" rx="4"/><rect class="l" x="0.75" y="0.75" width="49.079" height="33.325" rx="3.25"/></g><g class="f" transform="translate(130.186 151.941)"><rect class="k" width="50.579" height="34.825" rx="4"/><rect class="l" x="0.75" y="0.75" width="49.079" height="33.325" rx="3.25"/></g><g class="f" transform="translate(73.535 151.941)"><rect class="k" width="50.579" height="34.825" rx="4"/><rect class="l" x="0.75" y="0.75" width="49.079" height="33.325" rx="3.25"/></g><g class="f" transform="translate(187.15 151.941)"><rect class="k" width="50.579" height="34.825" rx="4"/><rect class="l" x="0.75" y="0.75" width="49.079" height="33.325" rx="3.25"/></g><g class="f" transform="translate(16.557 191.852)"><rect class="k" width="50.579" height="34.825" rx="4"/><rect class="l" x="0.75" y="0.75" width="49.079" height="33.325" rx="3.25"/></g><g class="f" transform="translate(130.186 191.852)"><rect class="k" width="50.579" height="34.825" rx="4"/><rect class="l" x="0.75" y="0.75" width="49.079" height="33.325" rx="3.25"/></g><g class="f" transform="translate(130.186 232.431)"><rect class="k" width="50.579" height="34.825" rx="4"/><rect class="l" x="0.75" y="0.75" width="49.079" height="33.325" rx="3.25"/></g><g class="f" transform="translate(73.535 191.852)"><rect class="k" width="50.579" height="34.825" rx="4"/><rect class="l" x="0.75" y="0.75" width="49.079" height="33.325" rx="3.25"/></g><g class="f" transform="translate(187.15 191.852)"><rect class="k" width="50.579" height="34.825" rx="4"/><rect class="l" x="0.75" y="0.75" width="49.079" height="33.325" rx="3.25"/></g><g class="f" transform="translate(187.15 232.431)"><rect class="k" width="50.579" height="34.825" rx="4"/><rect class="l" x="0.75" y="0.75" width="49.079" height="33.325" rx="3.25"/></g><g class="f" transform="translate(16.557 232.431)"><rect class="k" width="106.133" height="34.825" rx="4"/><rect class="l" x="0.75" y="0.75" width="104.633" height="33.325" rx="3.25"/></g><path class="g" d="M2.2-12.231a3.9,3.9,0,0,1-.146-.96,1.04,1.04,0,0,1,.176-.692.677.677,0,0,1,.528-.194H13.444a3.207,3.207,0,0,1,.158,1.02.909.909,0,0,1-.182.626.884.884,0,0,1-.668.2Zm0,5.587a3.9,3.9,0,0,1-.146-.96A1.04,1.04,0,0,1,2.227-8.3a.677.677,0,0,1,.528-.194H13.444A3.207,3.207,0,0,1,13.6-7.47a.909.909,0,0,1-.182.626.884.884,0,0,1-.668.2Z" transform="translate(204.212 260.604)"/><path class="g" d="M8.816-10.36v4.992a4.61,4.61,0,0,1-1.19.146A.865.865,0,0,1,7.018-5.4a.9.9,0,0,1-.194-.668V-10.36H2.2a3.9,3.9,0,0,1-.146-.96,1.04,1.04,0,0,1,.176-.692.677.677,0,0,1,.528-.194H6.824V-17.2a6,6,0,0,1,1.117-.146,1.014,1.014,0,0,1,.686.176.69.69,0,0,1,.188.528v4.433h4.628a3.207,3.207,0,0,1,.158,1.02.909.909,0,0,1-.182.626.884.884,0,0,1-.668.2Z" transform="translate(204.212 220.69)"/><path class="g" d="M2.2-10.4a3.9,3.9,0,0,1-.146-.96,1.04,1.04,0,0,1,.176-.692.677.677,0,0,1,.528-.194H13.444a3.207,3.207,0,0,1,.158,1.02.909.909,0,0,1-.182.626.884.884,0,0,1-.668.2ZM7.82-5.07a2.1,2.1,0,0,1-1.354-.358,1.273,1.273,0,0,1-.431-1.038,1.239,1.239,0,0,1,.474-1.045A2.1,2.1,0,0,1,7.82-7.876a2.1,2.1,0,0,1,1.36.364,1.283,1.283,0,0,1,.437,1.045,1.223,1.223,0,0,1-.474,1.038A2.153,2.153,0,0,1,7.82-5.07Zm0-9.717a2.1,2.1,0,0,1-1.354-.358,1.273,1.273,0,0,1-.431-1.038,1.239,1.239,0,0,1,.474-1.045,2.1,2.1,0,0,1,1.312-.364,2.1,2.1,0,0,1,1.36.364,1.283,1.283,0,0,1,.437,1.045,1.223,1.223,0,0,1-.474,1.038A2.153,2.153,0,0,1,7.82-14.787Z" transform="translate(204.212 100.591)"/><path class="g" d="M9.439-11l3.352,3.352a5.2,5.2,0,0,1-.741.947.851.851,0,0,1-.559.3.906.906,0,0,1-.607-.334L8.03-9.589,4.763-6.321a4.113,4.113,0,0,1-.85-.632,1.179,1.179,0,0,1-.407-.65.669.669,0,0,1,.237-.516L6.621-11l-3.34-3.34a5.739,5.739,0,0,1,.68-.9.99.99,0,0,1,.607-.37.709.709,0,0,1,.51.249L8.03-12.407,11.3-15.674a4.057,4.057,0,0,1,.9.668,1,1,0,0,1,.352.613.917.917,0,0,1-.328.626Z" transform="translate(204.001 140.172)"/><path class="g" d="M.975,0H11.392a1.966,1.966,0,0,1,.131.787.585.585,0,0,1-.164.492,1.076,1.076,0,0,1-.6.12H.472A1.956,1.956,0,0,1,.33.678Q.33.23.488.115A.833.833,0,0,1,.975,0Z" transform="translate(206.164 168.461)"/><path class="g" d="M6.5-2.9A5.515,5.515,0,0,1,2.429-4.267q-1.361-1.366-1.361-5.3,0-4.69,1.6-6.69a5.654,5.654,0,0,1,4.7-2,5.419,5.419,0,0,1,4.006,1.366q1.361,1.366,1.361,5.466,0,4.526-1.6,6.526A5.578,5.578,0,0,1,6.5-2.9ZM6.84-16.663a2.578,2.578,0,0,0-2.29,1.23q-.8,1.23-.8,4.64,0,3.749.793,5.023A2.717,2.717,0,0,0,7.025-4.5a2.5,2.5,0,0,0,2.252-1.23,9.067,9.067,0,0,0,.776-4.476q0-3.8-.8-5.132A2.632,2.632,0,0,0,6.84-16.663Z" transform="translate(217.646 42.028)"/><g transform="translate(87.736 79.998)"><path class="g" d="M6.869-12.37v3.555a3.283,3.283,0,0,1-.848.1.616.616,0,0,1-.433-.13.642.642,0,0,1-.138-.476V-12.37h-3.3a2.774,2.774,0,0,1-.1-.683.741.741,0,0,1,.125-.493.483.483,0,0,1,.376-.138h2.9V-17.24a4.277,4.277,0,0,1,.8-.1.722.722,0,0,1,.489.125.491.491,0,0,1,.134.376v3.157h3.3a2.284,2.284,0,0,1,.112.727.647.647,0,0,1-.13.446.629.629,0,0,1-.476.143Z" transform="translate(-2.051 19.503)"/><path class="g" d="M.789,0h7.42A1.4,1.4,0,0,1,8.3.561a.416.416,0,0,1-.117.35A.766.766,0,0,1,7.757,1H.431A1.393,1.393,0,0,1,.33.483q0-.319.113-.4A.593.593,0,0,1,.789,0Z" transform="translate(13.304 13.857)"/><path class="g" d="M1.513,19.315l-.459,1.268c-.313-.022,0,.124-.626-.1q-.35-.12-.41-.322A1.067,1.067,0,0,1,.1,19.552L7.227.007c.408.058.076-.1.571.08q.415.153.47.339a.86.86,0,0,1-.055.5Z" transform="translate(7.704 0) rotate(3)"/></g><path class="g" d="M5.879-14.833a4.214,4.214,0,0,1,1.14.076q.134.076,1.8,4.979t2.253,6.32h.784a1.388,1.388,0,0,1,.107.517.435.435,0,0,1-.089.312.435.435,0,0,1-.312.089h-3.7A1.58,1.58,0,0,1,7.75-3.1a.35.35,0,0,1,.094-.272.453.453,0,0,1,.307-.085h.481q-.169-.793-.855-3.046H3.76Q3.136-4.27,3.011-3.459H3.84a1.388,1.388,0,0,1,.107.517.435.435,0,0,1-.089.312.435.435,0,0,1-.312.089H.268A1.7,1.7,0,0,1,.161-3.1a.35.35,0,0,1,.094-.272.453.453,0,0,1,.307-.085h.517Q1.666-5.08,3.029-9.315t1.683-4.877A1.186,1.186,0,0,1,5.879-14.833ZM4.071-7.654H7.429a49.266,49.266,0,0,0-1.741-5.157A48.2,48.2,0,0,0,4.071-7.654Zm14.135,3.99a5.128,5.128,0,0,0,2.85-.819,1.471,1.471,0,0,1,.472,1.024q0,.5-1.149.8a11.11,11.11,0,0,1-2.761.3,5.2,5.2,0,0,1-3.794-1.211q-1.22-1.211-1.22-4.4,0-3.554,1.434-5.228a5.252,5.252,0,0,1,4.222-1.675,8.3,8.3,0,0,1,2.343.249q.793.249.793.846a1.383,1.383,0,0,1-.49.971,7.126,7.126,0,0,0-3.073-.766,2.6,2.6,0,0,0-2.28,1.091,6.66,6.66,0,0,0-.766,3.692,7.229,7.229,0,0,0,.806,4A2.992,2.992,0,0,0,18.207-3.664Z" transform="translate(30.625 97.979)"/><path class="g" d="M7.633-4.9l-.444.958a1.506,1.506,0,0,1-.67-.192q-.27-.122-.3-.279a.848.848,0,0,1,.113-.479l6.451-13.843a2.238,2.238,0,0,1,.636.174q.313.157.344.309a.635.635,0,0,1-.074.379ZM4.768-10.832a3.149,3.149,0,0,1-2.351-.731,3.17,3.17,0,0,1-.7-2.255,3.846,3.846,0,0,1,.866-2.616,3.258,3.258,0,0,1,2.6-1A3.122,3.122,0,0,1,7.52-16.7a3.255,3.255,0,0,1,.7,2.307,3.768,3.768,0,0,1-.866,2.564A3.236,3.236,0,0,1,4.768-10.832Zm.192-5.494a.981.981,0,0,0-.953.5,3.542,3.542,0,0,0-.266,1.576,3.784,3.784,0,0,0,.3,1.824,1.049,1.049,0,0,0,.958.466.964.964,0,0,0,.945-.5A3.434,3.434,0,0,0,6.2-13.967a3.963,3.963,0,0,0-.3-1.863A1.016,1.016,0,0,0,4.96-16.326ZM14.729-5.26a3.149,3.149,0,0,1-2.351-.731,3.156,3.156,0,0,1-.7-2.246,3.846,3.846,0,0,1,.866-2.616,3.258,3.258,0,0,1,2.6-1,3.122,3.122,0,0,1,2.333.731,3.255,3.255,0,0,1,.7,2.307,3.751,3.751,0,0,1-.866,2.56A3.243,3.243,0,0,1,14.729-5.26Zm.192-5.485a.981.981,0,0,0-.953.5A3.542,3.542,0,0,0,13.7-8.664a3.787,3.787,0,0,0,.3,1.82,1.046,1.046,0,0,0,.958.47.962.962,0,0,0,.945-.5,3.438,3.438,0,0,0,.257-1.506,3.96,3.96,0,0,0-.3-1.868A1.018,1.018,0,0,0,14.92-10.745Z" transform="translate(145.241 100.277)"/><path class="g" d="M4.784-.257A1.89,1.89,0,0,1,3.565-.579a1.146,1.146,0,0,1-.388-.935,1.115,1.115,0,0,1,.426-.94,1.894,1.894,0,0,1,1.181-.328,1.891,1.891,0,0,1,1.224.328,1.155,1.155,0,0,1,.394.94,1.1,1.1,0,0,1-.426.935A1.938,1.938,0,0,1,4.784-.257Z" transform="translate(150.261 255.294)"/><path class="g" d="M5.971-8.891A5.011,5.011,0,0,1,2.418-9.919a3.983,3.983,0,0,1-1.06-3,5.147,5.147,0,0,1,1.519-3.875,5.815,5.815,0,0,1,4.22-1.47q2.809,0,3.974,1.492t1.164,4.837q0,4.679-1.9,6.854T4.211-2.9A6.391,6.391,0,0,1,2-3.108a.773.773,0,0,1-.361-.732,1.926,1.926,0,0,1,.426-1.192A6.918,6.918,0,0,0,4.747-4.5,4.613,4.613,0,0,0,8.354-5.83,6.236,6.236,0,0,0,9.48-9.35,13.357,13.357,0,0,1,5.971-8.891Zm3.6-2.558a8.539,8.539,0,0,0-.7-3.9A2.422,2.422,0,0,0,6.55-16.663a2.262,2.262,0,0,0-1.946.771,3.537,3.537,0,0,0-.568,2.137A3.064,3.064,0,0,0,5.1-11.039q1.066.727,4.444.4Q9.567-11.023,9.567-11.449Z" transform="translate(148.938 139.206)"/><path class="g" d="M7.412-18.259a5.826,5.826,0,0,1,3.422.847,2.626,2.626,0,0,1,1.181,2.235q0,2.3-3.312,4.056a8.983,8.983,0,0,1,2.777,1.563,3.087,3.087,0,0,1,1.017,2.307,3.761,3.761,0,0,1-1.645,3.1A7.469,7.469,0,0,1,6.253-2.9a6.541,6.541,0,0,1-3.728-.836A2.74,2.74,0,0,1,1.345-6.115q0-2.394,3.389-4.547Q1.793-12.2,1.793-14.324a3.332,3.332,0,0,1,1.558-2.842A6.922,6.922,0,0,1,7.412-18.259ZM6.056-10.072A4.248,4.248,0,0,0,4.023-6.749a2.013,2.013,0,0,0,.749,1.634A3.372,3.372,0,0,0,6.963-4.5,3.269,3.269,0,0,0,9.057-5.1a2.088,2.088,0,0,0,.76-1.733Q9.817-8.826,6.056-10.072Zm3.279-4.493a1.922,1.922,0,0,0-.65-1.541,2.747,2.747,0,0,0-1.842-.557,2.561,2.561,0,0,0-1.782.541,1.869,1.869,0,0,0-.59,1.448q0,1.913,2.875,3.039A3.519,3.519,0,0,0,9.336-14.564Z" transform="translate(92.474 139.206)"/><path class="g" d="M2.784-18h8.6a1.028,1.028,0,0,1,.656.159.59.59,0,0,1,.186.476,5.1,5.1,0,0,1-.579,2.028q-.579,1.241-2.76,5.05A13.257,13.257,0,0,0,6.872-3.074H5.353A1.039,1.039,0,0,1,4.161-4.233,7.955,7.955,0,0,1,5.008-7.4q.847-1.864,2.585-5.034a13.913,13.913,0,0,0,1.793-4.143H7.823a15.958,15.958,0,0,0-5.914.918,2.677,2.677,0,0,1-.459-1.421.812.812,0,0,1,.3-.689A1.75,1.75,0,0,1,2.784-18Z" transform="translate(35.38 139.161)"/><path class="g" d="M7.916-12.269a5.406,5.406,0,0,1,3.411.918A3.8,3.8,0,0,1,12.485-8.2a5.033,5.033,0,0,1-1.53,3.886A6.31,6.31,0,0,1,6.517-2.9,4.583,4.583,0,0,1,2.767-4.245Q1.674-5.59,1.674-8.8q0-4.843,1.771-7.149a6.378,6.378,0,0,1,5.4-2.307,7.364,7.364,0,0,1,2.285.235.844.844,0,0,1,.612.836,2.114,2.114,0,0,1-.481,1.257A8.031,8.031,0,0,0,7.916-16.7a2.878,2.878,0,0,0-2.722,1.519,8.4,8.4,0,0,0-.809,3.607A9.725,9.725,0,0,1,7.916-12.269ZM5.008-5.579A2.483,2.483,0,0,0,7.293-4.5a2.6,2.6,0,0,0,1.88-.623,3.016,3.016,0,0,0,.645-2.208,3.787,3.787,0,0,0-.754-2.695,3.092,3.092,0,0,0-2.285-.76,6.816,6.816,0,0,0-2.427.437Q4.353-6.683,5.008-5.579Z" transform="translate(148.888 179.05)"/><path class="g" d="M11.42-18a2.439,2.439,0,0,1,.131.853.51.51,0,0,1-.164.437.947.947,0,0,1-.547.12h-5.6L4.861-11.83a13.962,13.962,0,0,1,2.6-.284,5.52,5.52,0,0,1,3.329.907,3.5,3.5,0,0,1,1.241,3.028,4.794,4.794,0,0,1-1.716,3.9A7.874,7.874,0,0,1,5.2-2.856,8.68,8.68,0,0,1,2.582-3.1a.921.921,0,0,1-.618-.935,1.877,1.877,0,0,1,.47-1.192,8.423,8.423,0,0,0,3.432.885,3.8,3.8,0,0,0,2.662-.793,2.926,2.926,0,0,0,.847-2.246,2.975,2.975,0,0,0-.9-2.443,3.442,3.442,0,0,0-2.241-.727,8.414,8.414,0,0,0-2.121.284H2.883a1.537,1.537,0,0,1-.251-1.093l.437-5.684a1.138,1.138,0,0,1,.246-.732A.855.855,0,0,1,3.954-18Z" transform="translate(92.369 179.007)"/><path class="g" d="M10.47-4.245h1.672a1.443,1.443,0,0,1,.131.612.536.536,0,0,1-.12.4.7.7,0,0,1-.459.109H5.934A1.874,1.874,0,0,1,5.8-3.775a.484.484,0,0,1,.115-.355.555.555,0,0,1,.4-.115H8q.077-1.432.077-2.481H1.168A1.748,1.748,0,0,1,.949-7.59a1.871,1.871,0,0,1,.24-.864q.24-.459,3.389-5.023t3.29-4.673a.905.905,0,0,1,.525-.109h.995a1.344,1.344,0,0,1,.776.169q.23.169.23.814v9.139H11.87a2.861,2.861,0,0,1,.131.82.707.707,0,0,1-.115.454.635.635,0,0,1-.486.137H10.394Q10.438-4.923,10.47-4.245ZM8.076-8.137q0-7.619-.071-7.619T3.431-8.137Z" transform="translate(32.978 179.048)"/><path class="g" d="M6.72-18.259a6.135,6.135,0,0,1,3.356.82,3.054,3.054,0,0,1,1.279,2.787q0,2.755-2.962,3.913,3.389.689,3.389,3.323a3.839,3.839,0,0,1-1.722,3.29A8.379,8.379,0,0,1,5.157-2.9a12.262,12.262,0,0,1-2.864-.2.836.836,0,0,1-.645-.869,2.231,2.231,0,0,1,.481-1.3,9.981,9.981,0,0,0,3.706.885A4.144,4.144,0,0,0,8.234-5a2.173,2.173,0,0,0,.891-1.918,2.616,2.616,0,0,0-1.038-2.23,4.61,4.61,0,0,0-2.82-.776H4.84a.551.551,0,0,1-.4-.131.621.621,0,0,1-.131-.448,1.779,1.779,0,0,1,.24-.907h.9a3.737,3.737,0,0,0,2.509-.678,2.4,2.4,0,0,0,.76-1.891,2.7,2.7,0,0,0-.749-2.132,2.853,2.853,0,0,0-1.951-.656,9.157,9.157,0,0,0-1.629.131A4,4,0,0,1,4-15.964a3.586,3.586,0,0,1-.6.191.883.883,0,0,1-.793-.055,1.917,1.917,0,0,1-.492-.749,2.376,2.376,0,0,1-.235-.875.308.308,0,0,1,.137-.3,9.823,9.823,0,0,1,1.47-.3A20.306,20.306,0,0,1,6.72-18.259Z" transform="translate(148.885 218.895)"/><path class="g" d="M10.048-3.119H1.959a3.5,3.5,0,0,1-.219-1.3A4.729,4.729,0,0,1,2.872-7.629a22.35,22.35,0,0,1,3.635-3.126q2.5-1.82,2.5-3.482a2.226,2.226,0,0,0-.831-1.935,3.586,3.586,0,0,0-2.153-.6,9.968,9.968,0,0,0-1.716.131,4,4,0,0,1-.377.678,3.586,3.586,0,0,1-.6.191.883.883,0,0,1-.793-.055,1.917,1.917,0,0,1-.492-.749,2.376,2.376,0,0,1-.235-.875.308.308,0,0,1,.137-.3,9.823,9.823,0,0,1,1.47-.3,19.893,19.893,0,0,1,3.17-.219,7.438,7.438,0,0,1,3.7.782,3.1,3.1,0,0,1,1.361,2.946,4.8,4.8,0,0,1-.689,2.465,12.634,12.634,0,0,1-3.6,3.143Q4.462-6.956,4.626-4.529H5.5a13.839,13.839,0,0,0,5.717-1.006,2.692,2.692,0,0,1,.448,1.4.9.9,0,0,1-.317.793A2.511,2.511,0,0,1,10.048-3.119Z" transform="translate(92.404 218.891)"/><path class="g" d="M6.205-4.2q.087-1.519.087-8.5,0-2.088-.044-2.542a1.43,1.43,0,0,0-.2-.672.732.732,0,0,0-.481-.284,5.108,5.108,0,0,0-.94-.066h-.82a1.036,1.036,0,0,1-.131-.5q0-.6,1.519-.913A12.784,12.784,0,0,1,7.637-18a1.742,1.742,0,0,1,.694.1.558.558,0,0,1,.3.388,3.713,3.713,0,0,1,.077.885v4.755q0,6.143.077,7.663h2.492a1.35,1.35,0,0,1,.142.612.536.536,0,0,1-.12.4.725.725,0,0,1-.47.109H3.768a1.748,1.748,0,0,1-.142-.656.471.471,0,0,1,.12-.355A.558.558,0,0,1,4.139-4.2Z" transform="translate(34.179 218.848)"/><path class="g" d="M6.5-2.9A5.515,5.515,0,0,1,2.429-4.267q-1.361-1.366-1.361-5.3,0-4.69,1.6-6.69a5.654,5.654,0,0,1,4.7-2,5.419,5.419,0,0,1,4.006,1.366q1.361,1.366,1.361,5.466,0,4.526-1.6,6.526A5.578,5.578,0,0,1,6.5-2.9ZM6.84-16.663a2.578,2.578,0,0,0-2.29,1.23q-.8,1.23-.8,4.64,0,3.749.793,5.023A2.717,2.717,0,0,0,7.025-4.5a2.5,2.5,0,0,0,2.252-1.23,9.067,9.067,0,0,0,.776-4.476q0-3.8-.8-5.132A2.632,2.632,0,0,0,6.84-16.663Z" transform="translate(35.389 260.64)"/></g><path class="h" d="M587.39,2924.258c5.937.14,29.345-1.85,30.7,3.742.106,9-9.225,39.765-33.259,39.765s-31.587-29.615-31.587-39.327C553.2,2921.832,581.452,2924.118,587.39,2924.258Z" transform="translate(-514.054 -2824.71)"/><g transform="translate(28.218)"><g transform="translate(5.284)"><path class="i" d="M486.51,165.294a2.75,2.75,0,1,1-2.75-2.75A2.751,2.751,0,0,1,486.51,165.294Z" transform="translate(-437.435 -130.606)"/><path class="i" d="M459.9,142.9l17.075,1.8a.867.867,0,0,0,.957-.862v-1.6A36.924,36.924,0,0,0,441.01,105.31h-1.125a36.964,36.964,0,0,0-36.964,36.964v28.837a36.936,36.936,0,0,0,36.936,36.936h1.134a36.978,36.978,0,0,0,36.916-35.908c.01-.344.026-.687.026-1.033V154.232a.871.871,0,0,0-.778-.867,135.836,135.836,0,0,0-35.271.919A1.735,1.735,0,0,0,440.428,156v15.182a1.736,1.736,0,0,0,2.008,1.71,135.261,135.261,0,0,1,15.877-1.48l.057,0a17.4,17.4,0,0,1-17.378,17.077h-1.134a17.375,17.375,0,0,1-17.375-17.375V142.274a17.4,17.4,0,0,1,17.4-17.4h1.123a17.366,17.366,0,0,1,17.283,15.674c.031.252.05.495.063.731A1.727,1.727,0,0,0,459.9,142.9Z" transform="translate(-402.922 -105.31)"/></g><path class="j" d="M588.955,2826.867s-11.866,6.482-3,25.943" transform="translate(-564.693 -2730.455)"/><path class="j" d="M587.814,2826.867s13.42,6.675,1.09,25.7" transform="translate(-525.293 -2730.609)"/><path class="j" d="M588.838,2825.809a170.065,170.065,0,0,1,6.385,35.225" transform="translate(-508.923 -2767.638)"/><path class="j" d="M587.647,2825.943s-6.122,11.665-6.783,34.836" transform="translate(-580.864 -2766.941)"/></g></g></g></svg>