<svg xmlns="http://www.w3.org/2000/svg" width="23.001" height="23" viewBox="0 0 23.001 23"><defs><style>.a{fill:#fff;stroke-miterlimit:10;}.a,.c{stroke:rgba(0,0,0,0);}.b,.c{fill:#30ce4e;}</style></defs><g transform="translate(-2309.5 7740.5)"><path class="a" d="M0,11A11,11,0,1,1,11,22,11,11,0,0,1,0,11Z" transform="translate(2310 -7740)"/><path class="b" d="M4.107,5.973,9.566.258a.814.814,0,0,1,1.188,0,.909.909,0,0,1,0,1.244L4.107,8.461.246,4.419a.909.909,0,0,1,0-1.244.814.814,0,0,1,1.188,0Z" transform="translate(2315.5 -7733.125)"/><path class="c" d="M1194-8926a10.93,10.93,0,0,1-7.778-3.222A10.927,10.927,0,0,1,1183-8937a10.928,10.928,0,0,1,3.222-7.779A10.926,10.926,0,0,1,1194-8948a10.93,10.93,0,0,1,7.78,3.222A10.928,10.928,0,0,1,1205-8937a10.927,10.927,0,0,1-3.222,7.777A10.934,10.934,0,0,1,1194-8926Zm0-20.646a9.656,9.656,0,0,0-9.645,9.646,9.654,9.654,0,0,0,9.645,9.643,9.654,9.654,0,0,0,9.645-9.643A9.656,9.656,0,0,0,1194-8946.646Z" transform="translate(1127 1208)"/></g></svg>