<svg xmlns="http://www.w3.org/2000/svg" width="106.704" height="50" viewBox="0 0 106.704 50"><defs><style>.a{fill:#fff;}</style></defs><g transform="translate(-402.922 -105.31)"><g transform="translate(402.922 105.31)"><path class="a" d="M483.686,163.883a1.339,1.339,0,1,1-1.339-1.339A1.339,1.339,0,0,1,483.686,163.883Z" transform="translate(-459.802 -147.001)"/><path class="a" d="M430.653,123.606l8.31.874a.422.422,0,0,0,.466-.42v-.78a17.97,17.97,0,0,0-17.97-17.97h-.547a17.99,17.99,0,0,0-17.99,17.99v14.034A17.976,17.976,0,0,0,420.9,155.31h.552a18,18,0,0,0,17.966-17.476c0-.168.013-.334.013-.5V129.12a.424.424,0,0,0-.379-.422,66.109,66.109,0,0,0-17.166.447.844.844,0,0,0-.709.835v7.389a.845.845,0,0,0,.977.832,65.83,65.83,0,0,1,7.727-.721h.027a8.469,8.469,0,0,1-8.458,8.311H420.9a8.456,8.456,0,0,1-8.456-8.456V123.3a8.47,8.47,0,0,1,8.47-8.47h.546a8.452,8.452,0,0,1,8.411,7.628c.015.122.024.241.03.356A.84.84,0,0,0,430.653,123.606Z" transform="translate(-402.922 -105.31)"/></g><g transform="translate(447.018 107.526)"><g transform="translate(0 0)"><g transform="translate(32.993)"><path class="a" d="M709.475,115.157a2.539,2.539,0,0,0-2.39-1.687h-.007a2.543,2.543,0,0,0-2.391,1.7l-5.331,15.285a.863.863,0,0,1-.814.578H691.77a.862.862,0,0,1-.862-.862v-16.24a.464.464,0,0,0-.464-.464h-3.2a.464.464,0,0,0-.464.464v16.24a4.993,4.993,0,0,0,4.993,4.993h6.773a5,5,0,0,0,4.714-3.349l3.841-11.013,4.994,14.053a.464.464,0,0,0,.437.309h3.4a.464.464,0,0,0,.437-.619Z" transform="translate(-686.777 -113.47)"/></g><path class="a" d="M580.478,127.363v-3.789c-.823-.072-1.656-.111-2.5-.111a28.616,28.616,0,0,0-4.461.35.366.366,0,0,0-.308.362v3.206a.367.367,0,0,0,.424.361,28.559,28.559,0,0,1,3.353-.313H577a3.675,3.675,0,0,1-3.67,3.607h-.24a3.669,3.669,0,0,1-3.669-3.67v-6.09A3.675,3.675,0,0,1,573.1,117.6h.237a3.668,3.668,0,0,1,3.65,3.31c.006.053.011.1.013.154a.365.365,0,0,0,.327.344l3.154.331v-.468a7.786,7.786,0,0,1,.328-2.237,7.8,7.8,0,0,0-7.472-5.566H573.1a7.807,7.807,0,0,0-7.807,7.807v6.09a7.8,7.8,0,0,0,7.8,7.8h.24a7.811,7.811,0,0,0,7.474-5.575A7.777,7.777,0,0,1,580.478,127.363Z" transform="translate(-565.29 -113.47)"/><path class="a" d="M641.222,130.175V118.15a7.813,7.813,0,0,0-7.149-4.68h-.236a7.812,7.812,0,0,0-7.8,7.8v6.09a7.813,7.813,0,0,0,7.8,7.8h.233a7.815,7.815,0,0,0,7.159-4.7C641.226,130.37,641.222,130.273,641.222,130.175Zm-3.477-2.811a3.678,3.678,0,0,1-3.673,3.673h-.233a3.677,3.677,0,0,1-3.673-3.673v-6.09a3.676,3.676,0,0,1,3.672-3.671h.236a3.676,3.676,0,0,1,3.672,3.671Z" transform="translate(-609.537 -113.47)"/></g><g transform="translate(0 23.87)"><g transform="translate(32.993)"><path class="a" d="M709.475,203.052a2.539,2.539,0,0,0-2.39-1.687h-.007a2.543,2.543,0,0,0-2.391,1.7l-5.331,15.285a.863.863,0,0,1-.814.578H691.77a.862.862,0,0,1-.862-.862V201.83a.464.464,0,0,0-.464-.464h-3.2a.464.464,0,0,0-.464.464v16.24a4.993,4.993,0,0,0,4.993,4.993h6.773a5,5,0,0,0,4.714-3.349L707.1,208.7l4.994,14.053a.464.464,0,0,0,.437.308h3.4a.464.464,0,0,0,.437-.619Z" transform="translate(-686.777 -201.365)"/></g><path class="a" d="M580.478,215.258v-3.789c-.823-.072-1.656-.111-2.5-.111a28.616,28.616,0,0,0-4.461.35.366.366,0,0,0-.308.362v3.206a.367.367,0,0,0,.424.361,28.555,28.555,0,0,1,3.353-.313H577a3.675,3.675,0,0,1-3.67,3.607h-.24a3.669,3.669,0,0,1-3.669-3.67v-6.09A3.675,3.675,0,0,1,573.1,205.5h.237a3.668,3.668,0,0,1,3.65,3.31c.006.053.011.1.013.154a.365.365,0,0,0,.327.344l3.154.331v-.468a7.786,7.786,0,0,1,.328-2.237,7.8,7.8,0,0,0-7.472-5.566H573.1a7.807,7.807,0,0,0-7.807,7.806v6.09a7.8,7.8,0,0,0,7.8,7.8h.24a7.811,7.811,0,0,0,7.474-5.575A7.777,7.777,0,0,1,580.478,215.258Z" transform="translate(-565.29 -201.365)"/><path class="a" d="M641.222,218.07V206.045a7.813,7.813,0,0,0-7.149-4.68h-.236a7.812,7.812,0,0,0-7.8,7.8v6.09a7.813,7.813,0,0,0,7.8,7.8h.233a7.815,7.815,0,0,0,7.159-4.7C641.226,218.264,641.222,218.168,641.222,218.07Zm-3.477-2.811a3.678,3.678,0,0,1-3.673,3.673h-.233a3.677,3.677,0,0,1-3.673-3.673v-6.09a3.676,3.676,0,0,1,3.672-3.671h.236a3.676,3.676,0,0,1,3.672,3.671Z" transform="translate(-609.537 -201.365)"/></g></g></g></svg>