<svg xmlns="http://www.w3.org/2000/svg" width="133.811" height="50" viewBox="0 0 133.811 50"><defs><style>.a{fill:#f1f1f1;}.b{fill:#555;}.c{fill:#fff;}.d{fill:#e1ddd9;}.e{fill:#ffbf3f;}</style></defs><g transform="translate(-166.102 -72.595)"><g transform="translate(166.102 72.595)"><g transform="translate(47.538 9.804)"><path class="a" d="M282.867,104.364c-.958-2.17-1.787-5.052-2.549-7.163-.447-1.238-1.57,5.958-1.57,5.958l.287,2.272Z" transform="translate(-278.082 -96.394)"/><path class="b" d="M278.145,105.208a.665.665,0,0,1-.66-.582l-.286-2.271a.663.663,0,0,1,0-.186c0-.015.242-1.544.54-3.058.6-3.038.885-3.543,1.5-3.6a.784.784,0,0,1,.813.579c.262.727.529,1.531.81,2.382.542,1.64,1.1,3.335,1.722,4.737a.665.665,0,0,1-.43.909l-3.833,1.068A.667.667,0,0,1,278.145,105.208Zm.385-2.927.178,1.414,2.363-.658c-.525-1.295-1-2.743-1.469-4.15q-.141-.427-.277-.836C279.063,99.189,278.761,100.812,278.53,102.282Z" transform="translate(-277.193 -95.505)"/></g><g transform="translate(0.665 9.103)"><path class="c" d="M178.314,109.271a29.986,29.986,0,0,1-10.658,2.042s8.463,13.847,12.437,15.75,9.254,1.181,15.838-.558a19,19,0,0,0,7.16-3.446,8.921,8.921,0,0,0,2.817-9.719c-1.51-4.607-3.477-10.539-5.5-16.613-.139-.417-3.054-4.361-12.883-2.234-5.233,1.132-7.649,4.1-8.868,7.652s.559,11.178.559,11.178" transform="translate(-167.656 -93.868)"/></g><g transform="translate(1.315 24.402)"><path class="d" d="M169.175,131.849s7.482-.848,9.73-2.23c0,0,.465,1.1.642,1.653.685,2.143-6.687,5.9-9.83,1.734Z" transform="translate(-169.175 -129.619)"/></g><g transform="translate(28.275 41.076)"><path class="b" d="M232.842,174.921a.665.665,0,0,1-.665-.665V169.25a.665.665,0,0,1,1.33,0v5.006A.665.665,0,0,1,232.842,174.921Z" transform="translate(-232.177 -168.585)"/></g><g transform="translate(18.85 42.945)"><path class="b" d="M210.817,180.007a.665.665,0,0,1-.665-.665v-5.725a.665.665,0,1,1,1.33,0v5.725A.665.665,0,0,1,210.817,180.007Z" transform="translate(-210.152 -172.952)"/></g><g transform="translate(0 8.434)"><path class="b" d="M184.839,127.961a13.5,13.5,0,0,1-5.922-1.193c-4.1-1.965-12.367-15.43-12.717-16a.665.665,0,0,1,.591-1.011,29.551,29.551,0,0,0,10.088-1.882,17.41,17.41,0,0,1,.256-6.837c1.514-4.406,4.574-7.051,9.356-8.086,4.256-.921,7.774-.856,10.458.194,2.224.87,3.074,2.113,3.2,2.48,2.011,6.025,3.224,9.662,4.746,14.305,1.169,3.565,1.339,10.1-2.982,13.506-1.813,1.428-3.512,1.98-6.7,2.821a47.257,47.257,0,0,1-9.027,1.665Q185.492,127.961,184.839,127.961Zm-16.885-16.9c.815,1.29,2.348,3.671,4.089,6.137,4.233,5.994,6.387,7.858,7.448,8.367,4.093,1.961,9.811.87,15.381-.6,3.072-.811,4.589-1.3,6.213-2.58a8.878,8.878,0,0,0,3.055-5.816,14.437,14.437,0,0,0-.514-6.231c-1.518-4.633-2.73-8.263-4.734-14.268-.133-.208-2.69-3.867-12.122-1.826-4.349.941-7.011,3.235-8.38,7.219a16.4,16.4,0,0,0-.147,6.622c.285,2.289.72,4.171.724,4.189a.665.665,0,1,1-1.295.3c-.031-.133-.35-1.518-.62-3.356A31.771,31.771,0,0,1,167.954,111.065Zm30.929-15.022,0,.009Z" transform="translate(-166.102 -92.303)"/></g><g transform="translate(27.369 15.867)"><path class="b" d="M233.439,111.15a1.7,1.7,0,1,1-1.462-1.462A1.7,1.7,0,0,1,233.439,111.15Z" transform="translate(-230.06 -109.674)"/></g><g transform="translate(4.935 29.465)"><path class="b" d="M188.169,151.752a11.257,11.257,0,0,1-2.863-.374,15.4,15.4,0,0,1-7.5-4.949.665.665,0,0,1,.995-.883c5.568,6.272,10.923,5.005,12.967,4.17,3.339-1.365,5.652-4.547,5.5-7.566a.665.665,0,1,1,1.328-.067c.182,3.622-2.419,7.267-6.326,8.864A10.8,10.8,0,0,1,188.169,151.752Z" transform="translate(-177.635 -141.45)"/></g><g transform="translate(32.834 8.861)"><path class="e" d="M244.4,97.609c.983,2.822,2.6,7.761,3.061,9.187a.313.313,0,0,0,.474.161l16.929-11.528a.313.313,0,0,0-.212-.57c-4.2.492-17.541,2.052-19.992,2.337A.312.312,0,0,0,244.4,97.609Z" transform="translate(-243.722 -94.192)"/><path class="b" d="M246.875,106.789a.982.982,0,0,1-.931-.676c-.47-1.443-2.079-6.368-3.056-9.174h0a.977.977,0,0,1,.81-1.292c2.443-.284,15.919-1.861,19.992-2.337a.978.978,0,0,1,.664,1.78l-16.929,11.528A.971.971,0,0,1,246.875,106.789Zm.333-1.087h0Zm-2.921-8.784c.9,2.605,2.209,6.6,2.775,8.338L262.419,94.8C257.551,95.367,247.258,96.571,244.287,96.917Zm-.144-.416Z" transform="translate(-242.832 -93.303)"/></g><g transform="translate(41.199 9.774)"><path class="a" d="M281.477,116.04c2.985,4.57,3.219,8.035.639,9.828s-10.21,1.6-14.632.835-5.245-4.251-5.086-7.322c.135-2.6.393-6.094.761-8.575s4.5-15.125,4.5-15.125l3.09-.246.151,7.372.306,5.76" transform="translate(-262.38 -95.435)"/></g><g transform="translate(41.182 26.413)"><path class="d" d="M262.925,135.1s.751-1.535.825-.306a52.929,52.929,0,0,0,.712,7.16,7.171,7.171,0,0,0,2.617,4.228c1.376,1.007,3.981,1.4,5.75,1.622a36.3,36.3,0,0,0,8.231-.062c.949-.183.295.485-.725,1.14s-7.947,1.763-11.651.677-5.551-2.677-6.091-4.6C262.211,143.6,262.212,134.089,262.925,135.1Z" transform="translate(-262.339 -134.319)"/></g><g transform="translate(46.713 0.94)"><path class="a" d="M276.819,78.67a3.931,3.931,0,0,1,3.082-2.325s.5,4.5-1.732,5.774" transform="translate(-276.154 -75.68)"/><path class="b" d="M277.281,81.895a.665.665,0,0,1-.331-1.242c1.249-.715,1.475-2.966,1.447-4.367a3.267,3.267,0,0,0-1.846,1.735.665.665,0,0,1-1.242-.475,4.583,4.583,0,0,1,3.617-2.749.665.665,0,0,1,.748.586,12.352,12.352,0,0,1-.03,2.561c-.231,1.924-.915,3.224-2.034,3.864A.661.661,0,0,1,277.281,81.895Z" transform="translate(-275.265 -74.791)"/></g><g transform="translate(42.667 0)"><path class="a" d="M271.468,82.785s2.18-5.663-4.013-8.636c0,0-.309,3.363.24,4.72C268.208,80.136,270.648,81.384,271.468,82.785Z" transform="translate(-266.701 -73.484)"/><path class="b" d="M270.576,82.561a.664.664,0,0,1-.573-.329,8.2,8.2,0,0,0-1.762-1.757,6.708,6.708,0,0,1-2.054-2.245c-.593-1.465-.319-4.67-.285-5.031a.665.665,0,0,1,.95-.538c3.468,1.665,4.471,4.153,4.7,5.948a7.884,7.884,0,0,1-.355,3.526.665.665,0,0,1-.567.424Zm-3.415-8.221a10.479,10.479,0,0,0,.258,3.391,6.239,6.239,0,0,0,1.671,1.721c.391.324.788.654,1.145,1A5.959,5.959,0,0,0,267.161,74.34Z" transform="translate(-265.809 -72.595)"/></g><g transform="translate(40.534 9.109)"><path class="b" d="M273.467,127.031a43.364,43.364,0,0,1-6.986-.561c-3.924-.676-5.874-3.446-5.637-8.012.083-1.6.324-5.647.768-8.638.373-2.508,4.356-14.715,4.525-15.234a.666.666,0,0,1,.579-.457l3.09-.246a.665.665,0,0,1,.718.649l.151,7.361.305,5.749a.665.665,0,0,1-1.328.071l-.306-5.76v-.021l-.137-6.667-1.944.155c-.718,2.212-4.018,12.448-4.336,14.595-.3,2.036-.585,5.218-.756,8.512a7.841,7.841,0,0,0,.745,4.174,4.941,4.941,0,0,0,3.791,2.458c4.29.739,11.793.905,14.14-.726a3.419,3.419,0,0,0,1.483-3.283,12.459,12.459,0,0,0-2.3-5.635.665.665,0,0,1,1.114-.727,13.706,13.706,0,0,1,2.513,6.275,4.772,4.772,0,0,1-2.051,4.462C280.018,126.629,276.782,127.031,273.467,127.031Z" transform="translate(-260.825 -93.881)"/></g><g transform="translate(49.109 17.214)"><path class="c" d="M292.94,117.349V128.58a4.371,4.371,0,0,1-1.4-.285,20.515,20.515,0,0,1-3.113-2.029c-.67-.589-2.594-2.2-2.894-2.492s-1.677-1.657-1.943-2.025a5.187,5.187,0,0,1-.926-2.347c-.115-1.078-.229-2.2-.229-2.2h10.5l-5.455-2.78-5.068-.042.022,2.789" transform="translate(-281.752 -113.712)"/><path class="b" d="M292.051,128.356h-.021a4.934,4.934,0,0,1-1.647-.343,20.751,20.751,0,0,1-3.279-2.136c-.276-.243-.786-.677-1.279-1.1-.875-.745-1.462-1.246-1.639-1.418-.016-.016-1.675-1.637-2.019-2.111a5.9,5.9,0,0,1-1.048-2.666c-.115-1.079-.23-2.208-.23-2.208a.755.755,0,0,1,0-.087v-.008l-.022-2.789a.666.666,0,0,1,.671-.67l5.068.042a.66.66,0,0,1,.3.073l5.455,2.779a.666.666,0,0,1,.359.668.735.735,0,0,1,0,.075v11.231a.664.664,0,0,1-.665.665Zm-9.764-11.381c.043.411.1.946.154,1.469a4.581,4.581,0,0,0,.8,2.027c.2.276,1.4,1.483,1.868,1.937.159.154.911.794,1.574,1.359.52.443,1.012.861,1.3,1.11a20.062,20.062,0,0,0,2.948,1.922,2.262,2.262,0,0,0,.457.139v-9.965Zm-.077-1.33h7.071l-2.847-1.451-4.236-.035Z" transform="translate(-280.863 -112.823)"/></g><g transform="translate(45.184 6.224)"><path class="a" d="M273.9,89.106c.089-.049,1.32-.289,1.73-.345s1.127-.181,1.375.167.644,2.144,0,2.449-3.6.763-3.687-.071S273.062,89.565,273.9,89.106Z" transform="translate(-272.577 -88.028)"/><path class="b" d="M273.688,91.556a2.844,2.844,0,0,1-1.363-.263,1.044,1.044,0,0,1-.558-.807l-.018-.166c-.09-.814-.226-2.044.941-2.686a14.185,14.185,0,0,1,1.961-.422l.076-.01c.547-.077,1.462-.2,1.93.449a4.021,4.021,0,0,1,.4,2.576,1.235,1.235,0,0,1-.657.861,7.064,7.064,0,0,1-1.885.421A7.942,7.942,0,0,1,273.688,91.556Zm-.6-1.211v0Zm-.019-.172a6.816,6.816,0,0,0,2.7-.26,3.03,3.03,0,0,0-.169-1.437,3.072,3.072,0,0,0-.687.043l-.081.011c-.358.049-1.293.231-1.546.3C272.994,89.015,272.978,89.332,273.071,90.173Zm-.06-1.956h0Z" transform="translate(-271.692 -87.139)"/></g></g><g transform="translate(237.048 74.831)"><g transform="translate(0 0)"><g transform="translate(33.129)"><path class="e" d="M432.1,79.515a2.55,2.55,0,0,0-2.4-1.694H429.7a2.553,2.553,0,0,0-2.4,1.711L421.943,94.88a.867.867,0,0,1-.817.58h-6.8a.866.866,0,0,1-.866-.866V78.288a.466.466,0,0,0-.466-.466h-3.217a.465.465,0,0,0-.466.466V94.594a5.013,5.013,0,0,0,5.014,5.014h6.8a5.018,5.018,0,0,0,4.734-3.362l3.857-11.058L434.731,99.3a.465.465,0,0,0,.439.309h3.414a.466.466,0,0,0,.439-.621Z" transform="translate(-409.312 -77.821)"/></g><path class="e" d="M347.144,91.771V88.408c-.624-.041-1.253-.063-1.888-.063a28.7,28.7,0,0,0-4.986.435.368.368,0,0,0-.3.363v2.819a.368.368,0,0,0,.432.362,28.618,28.618,0,0,1,3.269-.369h0a3.716,3.716,0,0,1-3.7,3.5h-.24a3.685,3.685,0,0,1-3.685-3.684V85.66a3.69,3.69,0,0,1,3.69-3.69h.238a3.682,3.682,0,0,1,3.682,3.682v.44a.368.368,0,0,0,.33.365l3.162.332V85.656a7.82,7.82,0,0,1,.329-2.246,7.832,7.832,0,0,0-7.5-5.589h-.238a7.839,7.839,0,0,0-7.839,7.839v6.115a7.833,7.833,0,0,0,7.833,7.833h.24a7.833,7.833,0,0,0,7.505-5.6A7.82,7.82,0,0,1,347.144,91.771Z" transform="translate(-331.894 -77.821)"/><path class="e" d="M385.853,94.594V82.52a7.845,7.845,0,0,0-7.178-4.7h-.237a7.844,7.844,0,0,0-7.835,7.835v6.115a7.845,7.845,0,0,0,7.836,7.837h.234a7.847,7.847,0,0,0,7.189-4.72C385.857,94.79,385.853,94.693,385.853,94.594Zm-3.491-2.823a3.692,3.692,0,0,1-3.688,3.688h-.234a3.692,3.692,0,0,1-3.688-3.688V85.656a3.691,3.691,0,0,1,3.687-3.687h.237a3.691,3.691,0,0,1,3.687,3.687Z" transform="translate(-354.039 -77.821)"/></g><g transform="translate(0 23.969)"><g transform="translate(33.129)"><path class="e" d="M432.1,135.527a2.55,2.55,0,0,0-2.4-1.694H429.7a2.554,2.554,0,0,0-2.4,1.71l-5.352,15.348a.867.867,0,0,1-.817.581h-6.8a.866.866,0,0,1-.866-.866V134.3a.466.466,0,0,0-.466-.466h-3.217a.466.466,0,0,0-.466.466v16.306a5.014,5.014,0,0,0,5.014,5.014h6.8a5.018,5.018,0,0,0,4.734-3.363l3.857-11.058,5.014,14.111a.466.466,0,0,0,.439.31h3.414a.466.466,0,0,0,.439-.621Z" transform="translate(-409.312 -133.833)"/></g><path class="e" d="M347.144,147.783V144.42q-.936-.062-1.888-.063a28.7,28.7,0,0,0-4.986.435.368.368,0,0,0-.3.363v2.819a.368.368,0,0,0,.432.362,28.616,28.616,0,0,1,3.269-.368h0a3.716,3.716,0,0,1-3.7,3.5h-.24a3.685,3.685,0,0,1-3.685-3.685v-6.115a3.69,3.69,0,0,1,3.69-3.69h.238a3.682,3.682,0,0,1,3.682,3.682v.439a.368.368,0,0,0,.33.366l3.162.332v-1.133a7.82,7.82,0,0,1,.329-2.246,7.832,7.832,0,0,0-7.5-5.589h-.238a7.839,7.839,0,0,0-7.839,7.839v6.115a7.833,7.833,0,0,0,7.833,7.833h.24a7.833,7.833,0,0,0,7.505-5.6A7.82,7.82,0,0,1,347.144,147.783Z" transform="translate(-331.894 -133.833)"/><path class="e" d="M385.853,150.606V138.532a7.845,7.845,0,0,0-7.178-4.7h-.237a7.843,7.843,0,0,0-7.835,7.835v6.115a7.845,7.845,0,0,0,7.836,7.837h.234a7.846,7.846,0,0,0,7.189-4.721C385.857,150.8,385.853,150.7,385.853,150.606Zm-3.491-2.823a3.693,3.693,0,0,1-3.688,3.688h-.234a3.692,3.692,0,0,1-3.688-3.688v-6.115a3.691,3.691,0,0,1,3.687-3.687h.237a3.691,3.691,0,0,1,3.687,3.687Z" transform="translate(-354.039 -133.833)"/></g></g></g></svg>