<svg xmlns="http://www.w3.org/2000/svg" width="500" height="370" viewBox="0 0 500 370"><defs><style>.a,.f{fill:#fff;}.a{opacity:0;}.b,.g{fill:#fafafa;}.c,.d{fill:none;}.c,.d,.e,.f,.g{stroke:#aaa;stroke-linecap:round;stroke-width:2px;}.d,.e,.f,.g{stroke-linejoin:round;}.e{fill:#f1f1f1;}.h{fill:#ffc000;opacity:0.3;}.i{fill:#aaa;}</style></defs><g transform="translate(-367 -5521)"><rect class="a" width="500" height="370" transform="translate(367 5521)"/><path class="b" d="M270.957,1952.392c116.276,15.23,180.01-1.049,236.09-53.737s102.386-194.8,42.076-238.5-242.317-66.856-324.868-58.725S56.19,1679.9,88.849,1794.21,154.682,1937.162,270.957,1952.392Z" transform="translate(287.941 3925.734)"/><g transform="translate(410.151 5679.925)"><path class="b" d="M499.453,5695.2s-24.551,12.96-42.047,16.614c-2.6,2.677-7.95,10.764-7.95,10.764s-13.514,35.072-15.619,41.91-16.214,38.769-17.147,40.689-2.532,5.249-2.532,5.249,15.158,36.114,49.72,51.813c9.92-15.2,19.041-29.322,19.041-29.322s34.81-11.22,52.687-47.334C537.129,5753.1,499.453,5695.2,499.453,5695.2Z" transform="translate(-414.157 -5695.197)"/><path class="c" d="M531,5764.87c2.056,1.778,11.183,24.486,11.183,24.486s-9.143,14.455-13.673,20.7-22.541,23.882-40.777,29.347C476.219,5858.165,469,5868.1,469,5868.1" transform="translate(-419.094 -5701.469)"/><path class="d" d="M512.91,5692.375c-7.234,4.6-37.278,14.028-37.278,14.028l-7.459,10.519-20.557,56.655-13.945,30.667" transform="translate(-433.203 -5689.483)"/></g><path class="e" d="M479.553,5604.632l110.813,241L786.659,5789.6,655.5,5568.917,486.944,5600.8" transform="translate(-27.082 -6.98)"/><path class="f" d="M479.553,5598.972l99.537,216.371,165.187-47.157L627.619,5568.917l-141.846,26.832" transform="translate(-6.689 1.153)"/><path class="g" d="M557.934,5576.494l-12.429,3.238-4.862-10.828,46.2-9.628,7.74,8.091-15.423,3.611,1.64,5.516,20.148-4.318,21.436,11.494-81.74,18.547,2.4-16.654,20.913-4.76-2.075-5.3" transform="translate(-29.12 -3.807)"/><path class="c" d="M521.069,5599.329l74.511-17.161" transform="translate(-13.631 26.753)"/><path class="c" d="M521.069,5607.235l108.841-25.067" transform="translate(5.479 53.425)"/><path class="c" d="M521.069,5607.235l108.841-25.067" transform="translate(25.498 93.464)"/><path class="c" d="M521.069,5607.013l108.646-27.318" transform="translate(44.608 131.906)"/><path class="c" d="M521.069,5606.423l120.749-33.274" transform="translate(63.717 174.354)"/><path class="h" d="M521.069,5608.29l58.654-14.405,11.645,17.045-60,15.72Z" transform="translate(49.158 147.008)"/><path class="h" d="M521.069,5607.149l107.708-25.936,11.645,17.045-109.051,27.25Z" transform="translate(31.868 107.2)"/><path class="h" d="M521.069,5607.149l107.708-25.936,11.645,17.045-109.051,27.25Z" transform="translate(10.939 67.161)"/><path class="h" d="M521.069,5607.317l108-24.237,7.346,13.35-107.682,25.358Z" transform="translate(-5.441 29.684)"/><g transform="translate(640.619 5564.474)"><path class="g" d="M737.232,5656.267c-3.183-.548-14.3-.035-23.179,3.96-4.622,4.627-31.438,35.789-31.438,35.789l-8.366,15.336s.163,4.656,1.655,6.029c2.685,2.473,7.772,6.794,10.328,6.794,3.694,0,25.353-21.566,25.353-21.566" transform="translate(-672.59 -5573.261)"/><path class="g" d="M793.995,5580.532,684.954,5743.87l-4.548,21.123,19.173-10.982,119.6-163.448s-8.8,4.424-16.047-1.687-7-8.576-6.05-9.92,10.054-1.025,14.344,2.161,7.876,6.311,7.753,7.419" transform="translate(-680.406 -5578.205)"/><path class="d" d="M672.816,5750.751s4.551-2.566,5.8-2.025-1.075,3.94-.806,4.19,6.11-5.02,7.3-3.954-2.245,7.607-2.245,7.607,5.027-4.189,5.794-3.413S687,5759.6,687,5759.6" transform="translate(-667.911 -5584.559)"/><path class="i" d="M669.481,5763.769l6.048,4.317-8.032,4.433Z" transform="translate(-667.432 -5585.919)"/><path class="d" d="M762.289,5662.195l43.875,3.442,13.305,9.985,59.136,58.006" transform="translate(-675.966 -5576.775)"/><path class="d" d="M742.032,5694.8l8.429-2.986,1.977,1.69,4.388,3.75" transform="translate(-674.142 -5579.441)"/><path class="g" d="M731.707,5744.726l.884,9.207,5.674,5.149,26.745,3.535,1.807-7.687" transform="translate(-671.659 -5579.333)"/><path class="g" d="M752.686,5694.738l-31.776,10.675-6.59,23.2,9.327,16.861,7.057,5.114,32.438,3.164" transform="translate(-673.467 -5579.704)"/><path class="g" d="M804,5687.236l-19.455,12.731-8.381-1.616-31.023-14.479s-13.765-4.729-23.368,0-11.019,15.288-10.827,17.85,28.606,16.462,28.606,16.462l23.684,15.994s12.705,19.739,31.376,29.988a101.683,101.683,0,0,0,36.357,11.733l26.965,21.739" transform="translate(-690.277 -5572.698)"/><path class="c" d="M24.436,15.543c-7.333,5.306-13.909,8.5-15.782,8.932a4.5,4.5,0,0,1-4.43-1.764C3.906,21.263.524,14.47.064,12.316s1.654-4.373,3.021-5.4C8.025,3.547,19.5,0,19.5,0" transform="matrix(-0.616, -0.788, 0.788, -0.616, 35.576, 143.066)"/></g><g transform="translate(446.925 5697.716)"><path class="g" d="M516.537,5760.683l-4.023,4.607s4.847,16.067-3.3,36.109c-2.687,6.614-14.007,19.878-17.8,24.279" transform="translate(-457.886 -5718.884)"/><path class="g" d="M454.569,5760.816c8.58-17.405,16.933-32.463,20.316-32.936,4.979-.7,17.2-7.239,37.179-13.132,21.518.82,42.72,0,42.72,0s12.256,8.427,5.713,19.411c-2.84,4.767-8.567,8.8-18.4,14.563-12.295,7.2-22.877,8.088-22.877,8.088a27.68,27.68,0,0,1-7.161-2.285" transform="translate(-454.569 -5714.749)"/><path class="c" d="M541.831,5717.985c3.247,3.07,3.229,3.316,5.046,9.895,1.13,1.767,4.368,1.6,4.368,1.6s8.786-1.191,15.01-5.574" transform="translate(-462.425 -5715.04)"/></g></g></svg>