<svg xmlns="http://www.w3.org/2000/svg" width="106" height="106" viewBox="0 0 106 106">
    <g fill="#18598B">
        <path d="M99.413 16.445c.004-1.237-.746-2.352-1.893-2.816L66.629.636c-.772-.317-1.637-.317-2.408 0L33.314 13.629c-1.152.485-1.903 1.611-1.908 2.862v39.538c-.017 1.177.65 2.258 1.711 2.77l30.877 15.537c.864.425 1.876.425 2.74 0L97.703 58.86c1.08-.521 1.752-1.632 1.71-2.831V16.445zM62.283 66.63L37.524 54.18V21.397l24.759 11.917V66.63zm3.028-38.66l-8.768-4.21-14.567-7.102L65.372 6.83l23.41 9.828L74.2 23.7l-8.889 4.27zm27.863 26.273L68.476 66.629V33.314l24.759-11.887-.061 32.815z"/>
        <path d="M102.714 81.06H24.94V3.286c.02-.816-.29-1.606-.86-2.19-.57-.585-1.352-.914-2.168-.914H3.286C1.572.182.182 1.572.182 3.286v99.428c.049 1.681 1.422 3.021 3.104 3.029h99.428c1.656-.04 2.989-1.373 3.03-3.029V84.149c.015-.814-.297-1.6-.867-2.18-.57-.582-1.35-.91-2.163-.91zM6.375 6.375h12.372v6.39h-3.029c-1.71 0-3.096 1.387-3.096 3.097s1.386 3.097 3.096 3.097h3.029v6.193h-3.029c-1.706 0-3.089 1.383-3.089 3.09 0 1.706 1.383 3.089 3.09 3.089h3.028v6.193h-3.029c-1.71 0-3.096 1.386-3.096 3.097 0 1.71 1.386 3.096 3.096 3.096h3.029v6.254h-3.029c-1.706 0-3.089 1.383-3.089 3.09 0 1.706 1.383 3.089 3.09 3.089h3.028v6.193h-3.029c-1.71 0-3.096 1.387-3.096 3.097s1.386 3.097 3.096 3.097h3.029v6.39h-3.029c-1.71 0-3.096 1.386-3.096 3.097 0 1.71 1.386 3.096 3.096 3.096h3.029v1.817L6.375 95.25V6.375zm93.25 93.25H10.75l12.372-12.372h1.817v3.029c0 1.71 1.387 3.096 3.097 3.096s3.097-1.386 3.097-3.096v-3.029h6.39v3.029c0 1.71 1.386 3.096 3.097 3.096 1.71 0 3.096-1.386 3.096-3.096v-3.029h6.254v3.029c0 1.706 1.383 3.089 3.09 3.089 1.706 0 3.089-1.383 3.089-3.09v-3.028h6.193v3.029c0 1.71 1.387 3.096 3.097 3.096s3.097-1.386 3.097-3.096v-3.029h6.193v3.029c0 1.706 1.383 3.089 3.09 3.089 1.705 0 3.088-1.383 3.088-3.09v-3.028h6.194v3.029c0 1.71 1.386 3.096 3.096 3.096 1.71 0 3.097-1.386 3.097-3.096v-3.029h6.39l-.06 12.372z"/>
    </g>
</svg>
