<svg xmlns="http://www.w3.org/2000/svg" width="114" height="108" viewBox="0 0 114 108">
    <g fill="#18598B" stroke="#18598B" stroke-width="2">
        <path d="M111.063 62.972c-.697.977-1.214 2.19-2.134 2.846-.85.6-2.148.823-3.236.823-23.25.041-46.486.027-69.737.027h-1.38c.083.196.097.335.18.419 5.245 5.411 10.657 10.614 17.449 14.115 1.562.809 2.12.725 3.208-.67 1.464-1.869 2.915-3.752 4.38-5.62 2.175-2.79 5.118-3.278 8.075-1.312 5.537 3.682 11.074 7.378 16.597 11.074 2.999 2.009 3.64 4.91 1.772 8.034-1.144 1.91-2.385 3.78-3.418 5.746-2.203 4.185-5.746 6.095-10.307 6.625-6.876.795-13.278-.836-19.456-3.64-7.574-3.445-14.213-8.285-20.42-13.752C24.047 80.127 16.18 71.9 9.778 62.36c-3.863-5.775-7.001-11.883-8.494-18.732-.976-4.449-1.102-8.912.084-13.347.725-2.72 2.245-4.882 4.644-6.374 2.51-1.548 5.021-3.083 7.574-4.561 2.608-1.52 5.593-.823 7.322 1.66 1.13 1.618 2.204 3.277 3.557 4.881v-1.074V5.495c0-3.333 1.855-5.188 5.216-5.188 25.147 0 50.308.028 75.455-.042 2.915-.014 4.938.934 5.928 3.738v58.97zM67.798 4.017h-37.88c-1.633 0-1.772.14-1.772 1.8 0 8.27.014 16.555-.014 24.825 0 .88.223 1.576.711 2.288 1.186 1.715 2.33 3.459 3.473 5.202 1.841 2.79 1.367 5.76-1.255 7.839-2.009 1.59-4.031 3.124-6.04 4.714-1.032.809-1.24 1.534-.543 2.622 1.896 2.999 3.89 5.941 5.844 8.912.418.628.976.81 1.73.81 24.532-.015 49.066-.015 73.613-.015 1.548 0 1.73-.181 1.73-1.743V5.788c0-1.59-.182-1.771-1.813-1.771H67.798zm1.618 97.645c.642-.055 1.855-.14 3.068-.279 3.125-.348 5.552-1.715 7.072-4.616 1.06-2.036 2.343-3.961 3.515-5.928.836-1.422.683-2.176-.684-3.082-5.495-3.682-11.004-7.35-16.514-11.005-1.45-.962-2.19-.823-3.277.586-1.507 1.925-2.999 3.864-4.505 5.788-1.939 2.455-4.575 2.943-7.392 1.493-5.607-2.873-10.391-6.807-14.868-11.172-5.621-5.454-10.921-11.158-14.547-18.201-1.507-2.93-1.032-5.51 1.562-7.546 1.925-1.506 3.863-2.999 5.788-4.505 1.297-1.018 1.423-1.785.516-3.138-3.682-5.537-7.378-11.074-11.074-16.598-.865-1.297-1.674-1.478-2.999-.683-2.287 1.353-4.56 2.734-6.848 4.1-1.827 1.088-2.929 2.692-3.417 4.757-.85 3.57-.781 7.127-.07 10.697 1.227 6.165 3.961 11.674 7.336 16.904 5.663 8.773 12.734 16.319 20.364 23.376 6.332 5.858 13.082 11.144 20.893 14.966 4.881 2.37 9.986 4.017 16.081 4.086z" transform="translate(1 1)"/>
        <path d="M67.673 36.64c-1.2-.502-2.567-.795-3.585-1.548C53.851 27.42 43.67 19.666 33.474 11.925c-1.018-.781-1.2-1.841-.53-2.72.697-.906 1.799-.934 2.943-.07C44.017 15.3 52.149 21.48 60.28 27.645c1.827 1.394 3.668 2.775 5.495 4.17 1.52 1.158 2.413 1.158 3.96-.028C79.57 24.338 89.39 16.89 99.209 9.428c.083-.07.167-.125.25-.195 1.284-.976 2.4-.976 3.11-.014.684.92.378 1.98-.85 2.915-7.043 5.342-14.087 10.684-21.144 16.04l-8.675 6.583c-1.45 1.102-2.734 1.59-4.143 1.59 0 .111-.042.21-.083.293zM82.136 34.436c.683.432 1.241.642 1.604 1.032 6.207 6.611 12.385 13.236 18.564 19.875.85.92.837 2.064.042 2.776-.823.739-1.855.655-2.762-.307-6.165-6.597-12.33-13.208-18.494-19.805-.572-.614-.99-1.353-.502-2.134.363-.544.976-.92 1.548-1.437zM34.882 58.62c-1.687 0-2.594-1.408-2.022-2.593.153-.321.39-.6.642-.851 5.927-6.36 11.869-12.72 17.796-19.08.224-.237.433-.474.67-.698.809-.753 1.883-.78 2.608-.083.74.711.767 1.757.028 2.608-.516.6-1.074 1.158-1.604 1.743-5.565 5.956-11.13 11.925-16.709 17.867-.474.502-1.102.85-1.409 1.088z" transform="translate(1 1)"/>
    </g>
</svg>
