<svg xmlns="http://www.w3.org/2000/svg" width="206" height="187" viewBox="0 0 206 187">
    <g fill="none" fill-rule="evenodd">
        <g fill="#264D80" fill-rule="nonzero">
            <path d="M86.82 105.024h41.728c25.748 0 43.937 17.966 44.378 43.592.099 5.532.099 11.063 0 16.595 0 5.776-3.313 8.885-8.787 8.787-5.474-.098-8.272-3.28-8.37-8.86-.098-5.581 0-10.794 0-16.18.118-6.975-2.56-13.709-7.44-18.708-4.88-5-11.558-7.85-18.554-7.921-28.849-.245-57.657-.253-86.424-.024-14.416.093-26.083 11.716-26.19 26.09-.172 5.532 0 11.064 0 16.596 0 5.531-3.191 9.007-8.591 9.007-5.4 0-8.69-3.231-8.567-9.032.172-8.885-.417-17.965 1.277-26.58 3.972-19.404 21.107-33.327 40.966-33.288 14.875-.22 29.75 0 44.648 0l-.073-.074zM86.772.004c24.014.15 43.363 19.731 43.227 43.745-.137 24.013-19.707 43.372-43.721 43.25C62.264 86.876 42.892 67.318 43 43.305c-.04-11.578 4.574-22.687 12.805-30.83C64.036 4.332 75.195-.161 86.772.005zm25.863 43.375c-.327-14.241-11.794-25.708-26.036-26.035-14.246.384-25.73 11.792-26.208 26.035.366 14.394 11.984 25.958 26.381 26.257 14.248-.447 25.632-12.005 25.863-26.257z"/>
        </g>
        <path stroke="#979797" stroke-linecap="square" d="M79.5 140.5L79.5 140.5"/>
        <path fill="#FFF" stroke="#264D80" stroke-width="12" d="M196.762 96c.553 0 1.053.224 1.415.586.362.362.585.862.585 1.414h0l-11.71 81.286c-.072.492-.318.92-.67 1.226-.354.305-.813.488-1.31.488h0-58.114c-.552 0-1.052-.224-1.414-.586-.362-.362-.586-.862-.586-1.414h0l9.199-81.225c.057-.506.3-.95.655-1.267.355-.317.823-.508 1.332-.508h0z"/>
        <path stroke="#264D80" stroke-linecap="round" stroke-width="13" d="M123.5 167.5L9.5 167.5M108.5 142.5L121.5 160.5"/>
    </g>
</svg>
