<svg xmlns="http://www.w3.org/2000/svg" width="100" height="25" viewBox="0 0 100 25"><defs><style>.a{fill:#fff;opacity:0;}.b{fill:#f6921d;}.c{fill:#0071bb;}</style></defs><g transform="translate(869 -1540)"><rect class="a" width="100" height="25" transform="translate(-869 1540)"/><g transform="translate(-869.344 1541.741)"><path class="b" d="M.344.259,2.8,3.17H24.761L25.608.259H.344" transform="translate(0 0)"/><path class="b" d="M1.066,1.111l2.56,2.98H21.2l.868-2.98h-21" transform="translate(2.452 2.891)"/><path class="b" d="M1.838,2.009l2.282,2.7H17.448l.848-2.7H1.838" transform="translate(5.074 5.943)"/><path class="b" d="M14.672,2.86H2.584l2.46,2.911,8.78,0,.848-2.912" transform="translate(7.607 8.832)"/><path class="b" d="M11.137,3.712H3.306l2.562,2.98h4.407l.861-2.98" transform="translate(10.059 11.724)"/><path class="b" d="M6.624,7.6l.944-3.014H4.045L6.624,7.6" transform="translate(12.569 14.695)"/><path class="c" d="M25.755,6.99l6.089-.009,1.11-3.812L28.441.259H23.479L18.889,3.17H31.822L31.6,4H18.647l-.868,2.981h4.853l-.273.968H17.5l-.787,2.7H27.5l1.258.97H16.427l2.648,2.3,4.675,0-.214.675,4.908,0-.3,1.039H23.236l-.293,1h-2.01l.276-1H15.257l-.785,2.7H27.446l-.275,1.039h-13L17.052,22.3h7.33l3.851-2.912,2.258-7.76L27.118,8.782l-3.9.014.957-3.337h2.013L25.755,6.99" transform="translate(46.94 0)"/><path class="c" d="M24.324,18.345h4.5l-.3,1.025H23.968l-.825,2.924h5.74L35.3.26H27.808L26.016,3.165h7.223L32.968,4H25.51L23.777,6.98h8.348l-.278.97H23.229l-.82,1.455L22.432.26h-7.2l-.849,2.916,6.905-.007V4H14.139l-.849,2.917h7.939V7.95l-8.241.005-.786,2.7h5.251l-.328.97-5.208.012-.867,2.973h5.238l-.311,1.036-5.229,0L9.961,18.35h5.195l-.328,1.034-5.169,0-.846,2.907h6.229l3.575-11.85-.017.207H25.03l-.449.97-6.058-.007-.24,2.988H23.2L22.7,15.643H18.111l-.126,2.705h3.463l-.492,1.036-3.056.005-.233,2.905h3.178l5.812-11.967-.09.314H31.06l-.282.981-4.492.005-.853,2.988L29.91,14.6l-.3,1.055h-4.5l-.789,2.686" transform="translate(28.757 0.001)"/><path class="c" d="M17.03,5.456h4.986l1.5-5.2H11.84l-.749,2.909H21.483L21.223,4H10.849L9.981,6.98h5.434l-.3.97H9.7l-.848,2.7,10.441.01-.285.962-10.437,0-.812,2.99,5.473-.009-.292,1.039H7.455l-.782,2.7,10.377.012-.318,1.1H6.347l-.823,2.842H17.112l1.645-5.649-4.977-.029.865-2.973h4.982l1.478-5.062H16.163l.867-3.126" transform="translate(17.589 0.001)"/><g transform="translate(80.278 0.259)"><path class="b" d="M19.869.259l-.835,2.974,17.846-.01V.259Z" transform="translate(-16.813 -0.259)"/><path class="b" d="M19.621,1.115l-.835,2.974,18.935,0V1.115Z" transform="translate(-17.655 2.645)"/><path class="b" d="M19.376,2.009,18.529,4.92H38.595V2.009Z" transform="translate(-18.529 5.683)"/></g></g></g></svg>