<svg xmlns="http://www.w3.org/2000/svg" width="100" height="16.774" viewBox="0 0 100 16.774"><defs><style>.a{fill:#ffbf3f;}</style></defs><g transform="translate(-313.138 -538.663)"><g transform="translate(313.138 538.663)"><g transform="translate(25.507)"><path class="a" d="M408.1,539.967a1.963,1.963,0,0,0-1.847-1.3h-.006a1.966,1.966,0,0,0-1.848,1.317L400.281,551.8a.667.667,0,0,1-.629.447h-5.236a.667.667,0,0,1-.667-.666V539.022a.358.358,0,0,0-.358-.358h-2.477a.358.358,0,0,0-.358.358v12.555a3.86,3.86,0,0,0,3.86,3.86h5.236a3.864,3.864,0,0,0,3.645-2.589l2.969-8.514,3.86,10.865a.358.358,0,0,0,.338.239h2.629a.358.358,0,0,0,.338-.478Z" transform="translate(-390.556 -538.663)"/></g><path class="a" d="M324.88,549.4v-2.589q-.721-.047-1.454-.048a22.1,22.1,0,0,0-3.839.335.284.284,0,0,0-.233.279v2.17a.283.283,0,0,0,.333.278,22.032,22.032,0,0,1,2.517-.284h0a2.861,2.861,0,0,1-2.851,2.7h-.185a2.837,2.837,0,0,1-2.837-2.837V544.7a2.841,2.841,0,0,1,2.841-2.841h.184a2.835,2.835,0,0,1,2.835,2.835v.338a.283.283,0,0,0,.253.282l2.435.256V544.7a6.006,6.006,0,0,1,.254-1.729,6.031,6.031,0,0,0-5.777-4.3h-.184a6.035,6.035,0,0,0-6.035,6.035v4.708a6.031,6.031,0,0,0,6.031,6.031h.185a6.031,6.031,0,0,0,5.779-4.308A6.022,6.022,0,0,1,324.88,549.4Z" transform="translate(-313.138 -538.663)"/><path class="a" d="M363.589,551.577v-9.3a6.04,6.04,0,0,0-5.527-3.618h-.183a6.039,6.039,0,0,0-6.032,6.032V549.4a6.04,6.04,0,0,0,6.034,6.034h.18A6.042,6.042,0,0,0,363.6,551.8C363.591,551.728,363.589,551.653,363.589,551.577ZM360.9,549.4a2.843,2.843,0,0,1-2.84,2.84h-.18a2.843,2.843,0,0,1-2.84-2.84V544.7a2.842,2.842,0,0,1,2.838-2.838h.183A2.842,2.842,0,0,1,360.9,544.7Z" transform="translate(-339.093 -538.663)"/></g><g transform="translate(364.735 538.663)"><g transform="translate(25.507)"><path class="a" d="M564.708,539.967a1.963,1.963,0,0,0-1.847-1.3h-.006a1.966,1.966,0,0,0-1.848,1.317L556.885,551.8a.667.667,0,0,1-.629.447H551.02a.666.666,0,0,1-.667-.666V539.022a.358.358,0,0,0-.358-.358h-2.477a.358.358,0,0,0-.358.358v12.555a3.86,3.86,0,0,0,3.86,3.86h5.236a3.863,3.863,0,0,0,3.645-2.589l2.97-8.514,3.86,10.865a.358.358,0,0,0,.338.239H569.7a.358.358,0,0,0,.338-.478Z" transform="translate(-547.16 -538.663)"/></g><path class="a" d="M481.484,549.4v-2.589q-.721-.047-1.454-.048a22.107,22.107,0,0,0-3.839.335.283.283,0,0,0-.233.279v2.17a.283.283,0,0,0,.333.278,22.049,22.049,0,0,1,2.517-.284h0a2.862,2.862,0,0,1-2.851,2.7h-.185a2.837,2.837,0,0,1-2.837-2.837V544.7a2.841,2.841,0,0,1,2.841-2.841h.183a2.835,2.835,0,0,1,2.835,2.835v.338a.283.283,0,0,0,.254.282l2.434.256V544.7a6,6,0,0,1,.254-1.729,6.03,6.03,0,0,0-5.777-4.3h-.183a6.035,6.035,0,0,0-6.035,6.035v4.708a6.031,6.031,0,0,0,6.031,6.031h.185a6.031,6.031,0,0,0,5.779-4.308A6.02,6.02,0,0,1,481.484,549.4Z" transform="translate(-469.742 -538.663)"/><path class="a" d="M520.193,551.577v-9.3a6.04,6.04,0,0,0-5.527-3.618h-.183a6.039,6.039,0,0,0-6.032,6.032V549.4a6.04,6.04,0,0,0,6.034,6.034h.18A6.042,6.042,0,0,0,520.2,551.8C520.2,551.728,520.193,551.653,520.193,551.577ZM517.5,549.4a2.843,2.843,0,0,1-2.84,2.84h-.18a2.843,2.843,0,0,1-2.84-2.84V544.7a2.842,2.842,0,0,1,2.838-2.838h.183A2.842,2.842,0,0,1,517.5,544.7Z" transform="translate(-495.697 -538.663)"/></g></g></svg>